<svg width="191" height="53" viewBox="0 0 191 53" fill="none" xmlns="http://www.w3.org/2000/svg">
<rect x="0.971436" width="190.029" height="53" rx="8" fill="#3B82F6"/>
<path d="M48.456 25.6075L26.456 14.6075C26.2836 14.5213 26.0899 14.4867 25.8983 14.508C25.7067 14.5293 25.5253 14.6055 25.376 14.7275C25.2334 14.847 25.127 15.0039 25.0687 15.1805C25.0104 15.3572 25.0025 15.5466 25.046 15.7275L28.006 26.4975L25.006 37.2375C24.9652 37.3886 24.9605 37.5471 24.9921 37.7003C25.0237 37.8535 25.0909 37.9972 25.1881 38.1198C25.2854 38.2423 25.4101 38.3403 25.5521 38.4059C25.6942 38.4715 25.8496 38.5029 26.006 38.4975C26.1625 38.4966 26.3167 38.4589 26.456 38.3875L48.456 27.3875C48.6198 27.3036 48.7573 27.1761 48.8532 27.0191C48.9492 26.862 49 26.6816 49 26.4975C49 26.3135 48.9492 26.133 48.8532 25.9759C48.7573 25.8189 48.6198 25.6914 48.456 25.6075ZM27.556 35.6075L29.766 27.4975H39.006V25.4975H29.766L27.556 17.3875L45.766 26.4975L27.556 35.6075Z" fill="white"/>
<path d="M72.4148 23.1193C72.2727 22.6591 72.0767 22.2472 71.8267 21.8835C71.5824 21.5142 71.2869 21.1989 70.9403 20.9375C70.5994 20.6761 70.2074 20.4801 69.7642 20.3494C69.321 20.2131 68.8381 20.1449 68.3153 20.1449C67.3778 20.1449 66.5426 20.3807 65.8097 20.8523C65.0767 21.3239 64.5 22.017 64.0795 22.9318C63.6648 23.8409 63.4574 24.9489 63.4574 26.2557C63.4574 27.5739 63.6648 28.6903 64.0795 29.6051C64.4943 30.5199 65.071 31.2159 65.8097 31.6932C66.5483 32.1648 67.4063 32.4006 68.3835 32.4006C69.2699 32.4006 70.0369 32.2301 70.6847 31.8892C71.3381 31.5483 71.8409 31.0653 72.1932 30.4403C72.5455 29.8097 72.7216 29.071 72.7216 28.2244L73.4375 28.3352H68.6989V25.8636H75.7812V27.9602C75.7812 29.4545 75.4631 30.7472 74.8267 31.8381C74.1903 32.929 73.3153 33.7699 72.2017 34.3608C71.0881 34.946 69.8097 35.2386 68.3665 35.2386C66.7585 35.2386 65.3466 34.8778 64.1307 34.1562C62.9205 33.429 61.9744 32.3977 61.2926 31.0625C60.6165 29.7216 60.2784 28.1307 60.2784 26.2898C60.2784 24.8807 60.4773 23.6222 60.875 22.5142C61.2784 21.4062 61.8409 20.4659 62.5625 19.6932C63.2841 18.9148 64.1307 18.3239 65.1023 17.9205C66.0739 17.5114 67.1307 17.3068 68.2727 17.3068C69.2386 17.3068 70.1392 17.4489 70.9744 17.733C71.8097 18.0114 72.5511 18.4091 73.1989 18.9261C73.8523 19.4432 74.3892 20.0568 74.8097 20.767C75.2301 21.4773 75.5057 22.2614 75.6364 23.1193H72.4148ZM84.4979 35.2557C83.1854 35.2557 82.0518 34.983 81.0973 34.4375C80.1484 33.8864 79.4183 33.108 78.907 32.1023C78.3956 31.0909 78.1399 29.9006 78.1399 28.5312C78.1399 27.1847 78.3956 26.0028 78.907 24.9858C79.424 23.9631 80.1456 23.1676 81.0717 22.5994C81.9979 22.0256 83.0859 21.7386 84.3359 21.7386C85.1428 21.7386 85.9041 21.8693 86.62 22.1307C87.3416 22.3864 87.978 22.7841 88.5291 23.3239C89.0859 23.8636 89.5234 24.5511 89.8416 25.3864C90.1598 26.2159 90.3189 27.2045 90.3189 28.3523V29.2983H79.5888V27.2188H87.3615C87.3558 26.6278 87.228 26.1023 86.978 25.642C86.728 25.1761 86.3786 24.8097 85.9297 24.5426C85.4865 24.2756 84.9695 24.142 84.3786 24.142C83.7479 24.142 83.1939 24.2955 82.7166 24.6023C82.2393 24.9034 81.8672 25.3011 81.6001 25.7955C81.3388 26.2841 81.2053 26.821 81.1996 27.4062V29.2216C81.1996 29.983 81.3388 30.6364 81.6172 31.1818C81.8956 31.7216 82.2848 32.1364 82.7848 32.4261C83.2848 32.7102 83.87 32.8523 84.5405 32.8523C84.9893 32.8523 85.3956 32.7898 85.7592 32.6648C86.1229 32.5341 86.4382 32.3438 86.7053 32.0938C86.9723 31.8438 87.174 31.5341 87.3104 31.1648L90.1911 31.4886C90.0092 32.25 89.6626 32.9148 89.1513 33.483C88.6456 34.0455 87.9979 34.483 87.2081 34.7955C86.4183 35.1023 85.5149 35.2557 84.4979 35.2557ZM96.0142 27.3295V35H92.929V21.9091H95.8778V24.1335H96.0312C96.3324 23.4006 96.8125 22.8182 97.4716 22.3864C98.1364 21.9545 98.9574 21.7386 99.9347 21.7386C100.838 21.7386 101.625 21.9318 102.295 22.3182C102.972 22.7045 103.494 23.2642 103.864 23.9972C104.239 24.7301 104.423 25.6193 104.418 26.6648V35H101.332V27.142C101.332 26.267 101.105 25.5824 100.651 25.0881C100.202 24.5937 99.5795 24.3466 98.7841 24.3466C98.2443 24.3466 97.7642 24.4659 97.3438 24.7045C96.929 24.9375 96.6023 25.2756 96.3636 25.7188C96.1307 26.1619 96.0142 26.6989 96.0142 27.3295ZM113.349 35.2557C112.037 35.2557 110.903 34.983 109.949 34.4375C109 33.8864 108.27 33.108 107.759 32.1023C107.247 31.0909 106.991 29.9006 106.991 28.5312C106.991 27.1847 107.247 26.0028 107.759 24.9858C108.276 23.9631 108.997 23.1676 109.923 22.5994C110.849 22.0256 111.938 21.7386 113.188 21.7386C113.994 21.7386 114.756 21.8693 115.472 22.1307C116.193 22.3864 116.83 22.7841 117.381 23.3239C117.938 23.8636 118.375 24.5511 118.693 25.3864C119.011 26.2159 119.17 27.2045 119.17 28.3523V29.2983H108.44V27.2188H116.213C116.207 26.6278 116.08 26.1023 115.83 25.642C115.58 25.1761 115.23 24.8097 114.781 24.5426C114.338 24.2756 113.821 24.142 113.23 24.142C112.599 24.142 112.045 24.2955 111.568 24.6023C111.091 24.9034 110.719 25.3011 110.452 25.7955C110.19 26.2841 110.057 26.821 110.051 27.4062V29.2216C110.051 29.983 110.19 30.6364 110.469 31.1818C110.747 31.7216 111.136 32.1364 111.636 32.4261C112.136 32.7102 112.722 32.8523 113.392 32.8523C113.841 32.8523 114.247 32.7898 114.611 32.6648C114.974 32.5341 115.29 32.3438 115.557 32.0938C115.824 31.8438 116.026 31.5341 116.162 31.1648L119.043 31.4886C118.861 32.25 118.514 32.9148 118.003 33.483C117.497 34.0455 116.849 34.483 116.06 34.7955C115.27 35.1023 114.366 35.2557 113.349 35.2557ZM121.781 35V21.9091H124.772V24.0909H124.908C125.147 23.3352 125.556 22.7528 126.136 22.3438C126.721 21.929 127.388 21.7216 128.138 21.7216C128.309 21.7216 128.499 21.7301 128.71 21.7472C128.925 21.7585 129.104 21.7784 129.246 21.8068V24.6449C129.116 24.5994 128.908 24.5597 128.624 24.5256C128.346 24.4858 128.076 24.4659 127.815 24.4659C127.252 24.4659 126.746 24.5881 126.298 24.8324C125.854 25.071 125.505 25.4034 125.249 25.8295C124.994 26.2557 124.866 26.7472 124.866 27.304V35H121.781ZM134.829 35.2642C133.999 35.2642 133.252 35.1165 132.587 34.821C131.928 34.5199 131.406 34.0767 131.019 33.4915C130.638 32.9062 130.448 32.1847 130.448 31.3267C130.448 30.5881 130.585 29.9773 130.857 29.4943C131.13 29.0114 131.502 28.625 131.974 28.3352C132.445 28.0455 132.977 27.8267 133.567 27.679C134.164 27.5256 134.781 27.4148 135.417 27.3466C136.184 27.267 136.806 27.196 137.283 27.1335C137.761 27.0653 138.107 26.9631 138.323 26.8267C138.545 26.6847 138.656 26.4659 138.656 26.1705V26.1193C138.656 25.4773 138.465 24.9801 138.085 24.6278C137.704 24.2756 137.156 24.0994 136.44 24.0994C135.684 24.0994 135.085 24.2642 134.641 24.5938C134.204 24.9233 133.908 25.3125 133.755 25.7614L130.874 25.3523C131.102 24.5568 131.477 23.892 131.999 23.358C132.522 22.8182 133.161 22.4148 133.917 22.1477C134.673 21.875 135.508 21.7386 136.423 21.7386C137.053 21.7386 137.681 21.8125 138.306 21.9602C138.931 22.108 139.502 22.3523 140.019 22.6932C140.536 23.0284 140.951 23.4858 141.263 24.0653C141.582 24.6449 141.741 25.3693 141.741 26.2386V35H138.775V33.2017H138.673C138.485 33.5653 138.221 33.9062 137.88 34.2244C137.545 34.5369 137.121 34.7898 136.61 34.983C136.104 35.1705 135.511 35.2642 134.829 35.2642ZM135.63 32.9972C136.249 32.9972 136.786 32.875 137.241 32.6307C137.695 32.3807 138.045 32.0511 138.289 31.642C138.539 31.233 138.664 30.7869 138.664 30.304V28.7614C138.567 28.8409 138.403 28.9148 138.17 28.983C137.942 29.0511 137.687 29.1108 137.403 29.1619C137.119 29.2131 136.837 29.2585 136.559 29.2983C136.281 29.3381 136.039 29.3722 135.835 29.4006C135.374 29.4631 134.962 29.5653 134.599 29.7074C134.235 29.8494 133.948 30.0483 133.738 30.304C133.528 30.554 133.423 30.8778 133.423 31.2756C133.423 31.8438 133.63 32.2727 134.045 32.5625C134.46 32.8523 134.988 32.9972 135.63 32.9972ZM151.38 21.9091V24.2955H143.854V21.9091H151.38ZM145.712 18.7727H148.798V31.0625C148.798 31.4773 148.86 31.7955 148.985 32.017C149.116 32.233 149.286 32.3807 149.496 32.4602C149.707 32.5398 149.94 32.5795 150.195 32.5795C150.388 32.5795 150.565 32.5653 150.724 32.5369C150.888 32.5085 151.013 32.483 151.099 32.4602L151.619 34.8722C151.454 34.929 151.218 34.9915 150.911 35.0597C150.61 35.1278 150.241 35.1676 149.803 35.179C149.031 35.2017 148.335 35.0852 147.715 34.8295C147.096 34.5682 146.604 34.1648 146.241 33.6193C145.883 33.0739 145.707 32.392 145.712 31.5739V18.7727ZM159.615 35.2557C158.303 35.2557 157.169 34.983 156.214 34.4375C155.266 33.8864 154.536 33.108 154.024 32.1023C153.513 31.0909 153.257 29.9006 153.257 28.5312C153.257 27.1847 153.513 26.0028 154.024 24.9858C154.541 23.9631 155.263 23.1676 156.189 22.5994C157.115 22.0256 158.203 21.7386 159.453 21.7386C160.26 21.7386 161.021 21.8693 161.737 22.1307C162.459 22.3864 163.095 22.7841 163.646 23.3239C164.203 23.8636 164.641 24.5511 164.959 25.3864C165.277 26.2159 165.436 27.2045 165.436 28.3523V29.2983H154.706V27.2188H162.479C162.473 26.6278 162.345 26.1023 162.095 25.642C161.845 25.1761 161.496 24.8097 161.047 24.5426C160.604 24.2756 160.087 24.142 159.496 24.142C158.865 24.142 158.311 24.2955 157.834 24.6023C157.357 24.9034 156.984 25.3011 156.717 25.7955C156.456 26.2841 156.322 26.821 156.317 27.4062V29.2216C156.317 29.983 156.456 30.6364 156.734 31.1818C157.013 31.7216 157.402 32.1364 157.902 32.4261C158.402 32.7102 158.987 32.8523 159.658 32.8523C160.107 32.8523 160.513 32.7898 160.876 32.6648C161.24 32.5341 161.555 32.3438 161.822 32.0938C162.089 31.8438 162.291 31.5341 162.428 31.1648L165.308 31.4886C165.126 32.25 164.78 32.9148 164.268 33.483C163.763 34.0455 163.115 34.483 162.325 34.7955C161.536 35.1023 160.632 35.2557 159.615 35.2557Z" fill="white"/>
</svg>
