<svg width="129" height="53" viewBox="0 0 129 53" fill="none" xmlns="http://www.w3.org/2000/svg">
<rect x="1" y="1" width="127" height="51" rx="7" stroke="#666D80" stroke-width="2"/>
<path d="M22.1 30.3666V19.4333C22.1 19.0555 22.228 18.7391 22.484 18.484C22.74 18.2289 23.0564 18.1009 23.4333 18.1C23.8111 18.1 24.128 18.228 24.384 18.484C24.64 18.74 24.7676 19.0564 24.7667 19.4333V30.3666L28.6333 26.5C28.8778 26.2555 29.1889 26.1333 29.5667 26.1333C29.9444 26.1333 30.2556 26.2555 30.5 26.5C30.7444 26.7444 30.8667 27.0555 30.8667 27.4333C30.8667 27.8111 30.7444 28.1222 30.5 28.3666L24.3667 34.5C24.1 34.7666 23.7889 34.9 23.4333 34.9C23.0778 34.9 22.7667 34.7666 22.5 34.5L16.3667 28.3666C16.1222 28.1222 16 27.8111 16 27.4333C16 27.0555 16.1222 26.7444 16.3667 26.5C16.6111 26.2555 16.9222 26.1333 17.3 26.1333C17.6778 26.1333 17.9889 26.2555 18.2333 26.5L22.1 30.3666Z" fill="#666D80"/>
<path d="M47.7502 17.5455V35H44.5883V17.5455H47.7502ZM54.1231 27.3295V35H51.0379V21.9091H53.9867V24.1335H54.1401C54.4413 23.4006 54.9214 22.8182 55.5805 22.3864C56.2453 21.9545 57.0663 21.7386 58.0435 21.7386C58.947 21.7386 59.7339 21.9318 60.4043 22.3182C61.0805 22.7045 61.6032 23.2642 61.9725 23.9972C62.3475 24.7301 62.5322 25.6193 62.5265 26.6648V35H59.4413V27.142C59.4413 26.267 59.214 25.5824 58.7595 25.0881C58.3106 24.5937 57.6884 24.3466 56.893 24.3466C56.3532 24.3466 55.8731 24.4659 55.4526 24.7045C55.0379 24.9375 54.7112 25.2756 54.4725 25.7188C54.2396 26.1619 54.1231 26.6989 54.1231 27.3295ZM76.0095 25.3693L73.197 25.6761C73.1174 25.392 72.9782 25.125 72.7793 24.875C72.5862 24.625 72.3248 24.4233 71.9953 24.2699C71.6657 24.1165 71.2623 24.0398 70.785 24.0398C70.143 24.0398 69.6032 24.179 69.1657 24.4574C68.7339 24.7358 68.5208 25.0966 68.5265 25.5398C68.5208 25.9205 68.66 26.2301 68.9441 26.4688C69.2339 26.7074 69.7112 26.9034 70.3759 27.0568L72.6089 27.5341C73.8475 27.8011 74.768 28.2244 75.3703 28.804C75.9782 29.3835 76.285 30.142 76.2907 31.0795C76.285 31.9034 76.0435 32.6307 75.5663 33.2614C75.0947 33.8864 74.4384 34.375 73.5975 34.7273C72.7566 35.0795 71.7907 35.2557 70.6998 35.2557C69.0975 35.2557 67.8078 34.9205 66.8305 34.25C65.8532 33.5739 65.2708 32.6335 65.0833 31.429L68.0918 31.1392C68.2282 31.7301 68.518 32.1761 68.9612 32.4773C69.4043 32.7784 69.981 32.929 70.6913 32.929C71.4242 32.929 72.0123 32.7784 72.4555 32.4773C72.9043 32.1761 73.1288 31.804 73.1288 31.3608C73.1288 30.9858 72.9839 30.6761 72.6941 30.4318C72.41 30.1875 71.9668 30 71.3646 29.8693L69.1316 29.4006C67.8759 29.1392 66.947 28.6989 66.3447 28.0795C65.7424 27.4545 65.4441 26.6648 65.4498 25.7102C65.4441 24.9034 65.6629 24.2045 66.106 23.6136C66.5549 23.017 67.1771 22.5568 67.9725 22.233C68.7737 21.9034 69.697 21.7386 70.7424 21.7386C72.2765 21.7386 73.4839 22.0653 74.3646 22.7188C75.2509 23.3722 75.7992 24.2557 76.0095 25.3693ZM84.6302 35.2557C83.3177 35.2557 82.1842 34.983 81.2296 34.4375C80.2808 33.8864 79.5506 33.108 79.0393 32.1023C78.5279 31.0909 78.2722 29.9006 78.2722 28.5312C78.2722 27.1847 78.5279 26.0028 79.0393 24.9858C79.5563 23.9631 80.2779 23.1676 81.2041 22.5994C82.1302 22.0256 83.2183 21.7386 84.4683 21.7386C85.2751 21.7386 86.0364 21.8693 86.7524 22.1307C87.4739 22.3864 88.1103 22.7841 88.6614 23.3239C89.2183 23.8636 89.6558 24.5511 89.9739 25.3864C90.2921 26.2159 90.4512 27.2045 90.4512 28.3523V29.2983H79.7211V27.2188H87.4938C87.4881 26.6278 87.3603 26.1023 87.1103 25.642C86.8603 25.1761 86.5109 24.8097 86.062 24.5426C85.6188 24.2756 85.1018 24.142 84.5109 24.142C83.8802 24.142 83.3262 24.2955 82.8489 24.6023C82.3717 24.9034 81.9995 25.3011 81.7325 25.7955C81.4711 26.2841 81.3376 26.821 81.3319 27.4062V29.2216C81.3319 29.983 81.4711 30.6364 81.7495 31.1818C82.0279 31.7216 82.4171 32.1364 82.9171 32.4261C83.4171 32.7102 84.0024 32.8523 84.6728 32.8523C85.1217 32.8523 85.5279 32.7898 85.8916 32.6648C86.2552 32.5341 86.5705 32.3438 86.8376 32.0938C87.1046 31.8438 87.3063 31.5341 87.4427 31.1648L90.3234 31.4886C90.1416 32.25 89.795 32.9148 89.2836 33.483C88.7779 34.0455 88.1302 34.483 87.3404 34.7955C86.5506 35.1023 85.6472 35.2557 84.6302 35.2557ZM93.0613 35V21.9091H96.0528V24.0909H96.1891C96.4278 23.3352 96.8369 22.7528 97.4164 22.3438C98.0016 21.929 98.6693 21.7216 99.4193 21.7216C99.5897 21.7216 99.7801 21.7301 99.9903 21.7472C100.206 21.7585 100.385 21.7784 100.527 21.8068V24.6449C100.397 24.5994 100.189 24.5597 99.9051 24.5256C99.6266 24.4858 99.3568 24.4659 99.0954 24.4659C98.5329 24.4659 98.0272 24.5881 97.5783 24.8324C97.1352 25.071 96.7857 25.4034 96.5301 25.8295C96.2744 26.2557 96.1465 26.7472 96.1465 27.304V35H93.0613ZM109.817 21.9091V24.2955H102.291V21.9091H109.817ZM104.149 18.7727H107.235V31.0625C107.235 31.4773 107.297 31.7955 107.422 32.017C107.553 32.233 107.723 32.3807 107.933 32.4602C108.144 32.5398 108.377 32.5795 108.632 32.5795C108.826 32.5795 109.002 32.5653 109.161 32.5369C109.326 32.5085 109.451 32.483 109.536 32.4602L110.056 34.8722C109.891 34.929 109.655 34.9915 109.348 35.0597C109.047 35.1278 108.678 35.1676 108.24 35.179C107.468 35.2017 106.772 35.0852 106.152 34.8295C105.533 34.5682 105.041 34.1648 104.678 33.6193C104.32 33.0739 104.144 32.392 104.149 31.5739V18.7727Z" fill="#666D80"/>
</svg>
