<svg width="212" height="53" viewBox="0 0 212 53" fill="none" xmlns="http://www.w3.org/2000/svg">
<rect width="212" height="53" rx="8" fill="#3B82F6"/>
<path d="M29.5 18.2454V15L25.25 19.3272L29.5 23.6546V20.409C33.006 20.409 35.875 23.3299 35.875 26.9C35.875 27.9818 35.6094 29.0098 35.131 29.929L36.6719 31.4978C37.5217 30.1454 38 28.5766 38 26.9C38 22.1401 34.1749 18.2454 29.5 18.2454ZM29.5 33.391C25.9937 33.391 23.125 30.4698 23.125 26.9C23.125 25.8182 23.3906 24.7905 23.8687 23.8708L22.3281 22.3022C21.4781 23.6004 21 25.2232 21 26.9C21 31.6599 24.8251 35.5546 29.5 35.5546V38.8L33.75 34.4728L29.5 30.1454V33.391Z" fill="white"/>
<path d="M55.7216 35V17.5455H62.267C63.608 17.5455 64.733 17.7784 65.642 18.2443C66.5568 18.7102 67.2472 19.3636 67.7131 20.2045C68.1847 21.0398 68.4205 22.0142 68.4205 23.1278C68.4205 24.2472 68.1818 25.2187 67.7045 26.0426C67.233 26.8608 66.5369 27.4943 65.6165 27.9432C64.696 28.3864 63.5653 28.608 62.2244 28.608H57.5625V25.983H61.7983C62.5824 25.983 63.2244 25.875 63.7244 25.6591C64.2244 25.4375 64.5938 25.1165 64.8324 24.696C65.0767 24.2699 65.1989 23.7472 65.1989 23.1278C65.1989 22.5085 65.0767 21.9801 64.8324 21.5426C64.5881 21.0994 64.2159 20.7642 63.7159 20.5369C63.2159 20.304 62.571 20.1875 61.7812 20.1875H58.8835V35H55.7216ZM64.7386 27.0909L69.0597 35H65.5312L61.2869 27.0909H64.7386ZM76.8026 35.2557C75.4901 35.2557 74.3565 34.983 73.402 34.4375C72.4531 33.8864 71.723 33.108 71.2116 32.1023C70.7003 31.0909 70.4446 29.9006 70.4446 28.5312C70.4446 27.1847 70.7003 26.0028 71.2116 24.9858C71.7287 23.9631 72.4503 23.1676 73.3764 22.5994C74.3026 22.0256 75.3906 21.7386 76.6406 21.7386C77.4474 21.7386 78.2088 21.8693 78.9247 22.1307C79.6463 22.3864 80.2827 22.7841 80.8338 23.3239C81.3906 23.8636 81.8281 24.5511 82.1463 25.3864C82.4645 26.2159 82.6236 27.2045 82.6236 28.3523V29.2983H71.8935V27.2188H79.6662C79.6605 26.6278 79.5327 26.1023 79.2827 25.642C79.0327 25.1761 78.6832 24.8097 78.2344 24.5426C77.7912 24.2756 77.2741 24.142 76.6832 24.142C76.0526 24.142 75.4986 24.2955 75.0213 24.6023C74.544 24.9034 74.1719 25.3011 73.9048 25.7955C73.6435 26.2841 73.5099 26.821 73.5043 27.4062V29.2216C73.5043 29.983 73.6435 30.6364 73.9219 31.1818C74.2003 31.7216 74.5895 32.1364 75.0895 32.4261C75.5895 32.7102 76.1747 32.8523 76.8452 32.8523C77.294 32.8523 77.7003 32.7898 78.0639 32.6648C78.4276 32.5341 78.7429 32.3438 79.0099 32.0938C79.277 31.8438 79.4787 31.5341 79.6151 31.1648L82.4957 31.4886C82.3139 32.25 81.9673 32.9148 81.456 33.483C80.9503 34.0455 80.3026 34.483 79.5128 34.7955C78.723 35.1023 77.8196 35.2557 76.8026 35.2557ZM90.9268 40.1818C89.8189 40.1818 88.8672 40.0313 88.0717 39.7301C87.2763 39.4347 86.6371 39.0369 86.1541 38.5369C85.6712 38.0369 85.3359 37.483 85.1484 36.875L87.9268 36.2017C88.0518 36.4574 88.2337 36.7102 88.4723 36.9602C88.7109 37.2159 89.032 37.4261 89.4354 37.5909C89.8445 37.7614 90.3587 37.8466 90.978 37.8466C91.853 37.8466 92.5774 37.6335 93.1513 37.2074C93.7251 36.7869 94.0121 36.0938 94.0121 35.1278V32.6477H93.8587C93.6996 32.9659 93.4666 33.2926 93.1598 33.6278C92.8587 33.9631 92.4581 34.2443 91.9581 34.4716C91.4638 34.6989 90.8416 34.8125 90.0916 34.8125C89.0859 34.8125 88.174 34.5767 87.3558 34.1051C86.5433 33.6278 85.8956 32.9176 85.4126 31.9744C84.9354 31.0256 84.6967 29.8381 84.6967 28.4119C84.6967 26.9744 84.9354 25.7614 85.4126 24.7727C85.8956 23.7784 86.5462 23.0256 87.3643 22.5142C88.1825 21.9972 89.0945 21.7386 90.1001 21.7386C90.8672 21.7386 91.4979 21.8693 91.9922 22.1307C92.4922 22.3864 92.8899 22.696 93.1854 23.0597C93.4808 23.4176 93.7053 23.7557 93.8587 24.0739H94.0291V21.9091H97.0717V35.2131C97.0717 36.3324 96.8047 37.2585 96.2706 37.9915C95.7365 38.7244 95.0064 39.2727 94.0803 39.6364C93.1541 40 92.103 40.1818 90.9268 40.1818ZM90.9524 32.392C91.6058 32.392 92.1626 32.233 92.6229 31.9148C93.0831 31.5966 93.4325 31.1392 93.6712 30.5426C93.9098 29.946 94.0291 29.2301 94.0291 28.3949C94.0291 27.571 93.9098 26.8494 93.6712 26.2301C93.4382 25.6108 93.0916 25.1307 92.6314 24.7898C92.1768 24.4432 91.6172 24.2699 90.9524 24.2699C90.2649 24.2699 89.6911 24.4489 89.2308 24.8068C88.7706 25.1648 88.424 25.6562 88.1911 26.2812C87.9581 26.9006 87.8416 27.6051 87.8416 28.3949C87.8416 29.196 87.9581 29.8977 88.1911 30.5C88.4297 31.0966 88.7791 31.5625 89.2393 31.8977C89.7053 32.2273 90.2763 32.392 90.9524 32.392ZM106.029 35.2557C104.717 35.2557 103.583 34.983 102.629 34.4375C101.68 33.8864 100.95 33.108 100.438 32.1023C99.9268 31.0909 99.6712 29.9006 99.6712 28.5312C99.6712 27.1847 99.9268 26.0028 100.438 24.9858C100.955 23.9631 101.677 23.1676 102.603 22.5994C103.529 22.0256 104.617 21.7386 105.867 21.7386C106.674 21.7386 107.435 21.8693 108.151 22.1307C108.873 22.3864 109.509 22.7841 110.06 23.3239C110.617 23.8636 111.055 24.5511 111.373 25.3864C111.691 26.2159 111.85 27.2045 111.85 28.3523V29.2983H101.12V27.2188H108.893C108.887 26.6278 108.759 26.1023 108.509 25.642C108.259 25.1761 107.91 24.8097 107.461 24.5426C107.018 24.2756 106.501 24.142 105.91 24.142C105.279 24.142 104.725 24.2955 104.248 24.6023C103.771 24.9034 103.398 25.3011 103.131 25.7955C102.87 26.2841 102.737 26.821 102.731 27.4062V29.2216C102.731 29.983 102.87 30.6364 103.148 31.1818C103.427 31.7216 103.816 32.1364 104.316 32.4261C104.816 32.7102 105.401 32.8523 106.072 32.8523C106.521 32.8523 106.927 32.7898 107.29 32.6648C107.654 32.5341 107.969 32.3438 108.237 32.0938C108.504 31.8438 108.705 31.5341 108.842 31.1648L111.722 31.4886C111.54 32.25 111.194 32.9148 110.683 33.483C110.177 34.0455 109.529 34.483 108.739 34.7955C107.95 35.1023 107.046 35.2557 106.029 35.2557ZM117.545 27.3295V35H114.46V21.9091H117.409V24.1335H117.562C117.864 23.4006 118.344 22.8182 119.003 22.3864C119.668 21.9545 120.489 21.7386 121.466 21.7386C122.369 21.7386 123.156 21.9318 123.827 22.3182C124.503 22.7045 125.026 23.2642 125.395 23.9972C125.77 24.7301 125.955 25.6193 125.949 26.6648V35H122.864V27.142C122.864 26.267 122.636 25.5824 122.182 25.0881C121.733 24.5937 121.111 24.3466 120.315 24.3466C119.776 24.3466 119.295 24.4659 118.875 24.7045C118.46 24.9375 118.134 25.2756 117.895 25.7188C117.662 26.1619 117.545 26.6989 117.545 27.3295ZM134.881 35.2557C133.568 35.2557 132.435 34.983 131.48 34.4375C130.531 33.8864 129.801 33.108 129.29 32.1023C128.778 31.0909 128.523 29.9006 128.523 28.5312C128.523 27.1847 128.778 26.0028 129.29 24.9858C129.807 23.9631 130.528 23.1676 131.455 22.5994C132.381 22.0256 133.469 21.7386 134.719 21.7386C135.526 21.7386 136.287 21.8693 137.003 22.1307C137.724 22.3864 138.361 22.7841 138.912 23.3239C139.469 23.8636 139.906 24.5511 140.224 25.3864C140.543 26.2159 140.702 27.2045 140.702 28.3523V29.2983H129.972V27.2188H137.744C137.739 26.6278 137.611 26.1023 137.361 25.642C137.111 25.1761 136.761 24.8097 136.312 24.5426C135.869 24.2756 135.352 24.142 134.761 24.142C134.131 24.142 133.577 24.2955 133.099 24.6023C132.622 24.9034 132.25 25.3011 131.983 25.7955C131.722 26.2841 131.588 26.821 131.582 27.4062V29.2216C131.582 29.983 131.722 30.6364 132 31.1818C132.278 31.7216 132.668 32.1364 133.168 32.4261C133.668 32.7102 134.253 32.8523 134.923 32.8523C135.372 32.8523 135.778 32.7898 136.142 32.6648C136.506 32.5341 136.821 32.3438 137.088 32.0938C137.355 31.8438 137.557 31.5341 137.693 31.1648L140.574 31.4886C140.392 32.25 140.045 32.9148 139.534 33.483C139.028 34.0455 138.381 34.483 137.591 34.7955C136.801 35.1023 135.898 35.2557 134.881 35.2557ZM143.312 35V21.9091H146.303V24.0909H146.44C146.678 23.3352 147.087 22.7528 147.667 22.3438C148.252 21.929 148.92 21.7216 149.67 21.7216C149.84 21.7216 150.031 21.7301 150.241 21.7472C150.457 21.7585 150.636 21.7784 150.778 21.8068V24.6449C150.647 24.5994 150.44 24.5597 150.156 24.5256C149.877 24.4858 149.607 24.4659 149.346 24.4659C148.783 24.4659 148.278 24.5881 147.829 24.8324C147.386 25.071 147.036 25.4034 146.781 25.8295C146.525 26.2557 146.397 26.7472 146.397 27.304V35H143.312ZM156.36 35.2642C155.531 35.2642 154.783 35.1165 154.119 34.821C153.46 34.5199 152.937 34.0767 152.55 33.4915C152.17 32.9062 151.979 32.1847 151.979 31.3267C151.979 30.5881 152.116 29.9773 152.388 29.4943C152.661 29.0114 153.033 28.625 153.505 28.3352C153.977 28.0455 154.508 27.8267 155.099 27.679C155.695 27.5256 156.312 27.4148 156.948 27.3466C157.715 27.267 158.337 27.196 158.815 27.1335C159.292 27.0653 159.638 26.9631 159.854 26.8267C160.076 26.6847 160.187 26.4659 160.187 26.1705V26.1193C160.187 25.4773 159.996 24.9801 159.616 24.6278C159.235 24.2756 158.687 24.0994 157.971 24.0994C157.215 24.0994 156.616 24.2642 156.173 24.5938C155.735 24.9233 155.44 25.3125 155.286 25.7614L152.406 25.3523C152.633 24.5568 153.008 23.892 153.531 23.358C154.053 22.8182 154.692 22.4148 155.448 22.1477C156.204 21.875 157.039 21.7386 157.954 21.7386C158.585 21.7386 159.212 21.8125 159.837 21.9602C160.462 22.108 161.033 22.3523 161.55 22.6932C162.067 23.0284 162.482 23.4858 162.795 24.0653C163.113 24.6449 163.272 25.3693 163.272 26.2386V35H160.306V33.2017H160.204C160.016 33.5653 159.752 33.9062 159.411 34.2244C159.076 34.5369 158.653 34.7898 158.141 34.983C157.636 35.1705 157.042 35.2642 156.36 35.2642ZM157.161 32.9972C157.781 32.9972 158.317 32.875 158.772 32.6307C159.227 32.3807 159.576 32.0511 159.82 31.642C160.07 31.233 160.195 30.7869 160.195 30.304V28.7614C160.099 28.8409 159.934 28.9148 159.701 28.983C159.474 29.0511 159.218 29.1108 158.934 29.1619C158.65 29.2131 158.369 29.2585 158.09 29.2983C157.812 29.3381 157.57 29.3722 157.366 29.4006C156.906 29.4631 156.494 29.5653 156.13 29.7074C155.766 29.8494 155.479 30.0483 155.269 30.304C155.059 30.554 154.954 30.8778 154.954 31.2756C154.954 31.8438 155.161 32.2727 155.576 32.5625C155.991 32.8523 156.519 32.9972 157.161 32.9972ZM172.911 21.9091V24.2955H165.386V21.9091H172.911ZM167.244 18.7727H170.329V31.0625C170.329 31.4773 170.391 31.7955 170.516 32.017C170.647 32.233 170.817 32.3807 171.028 32.4602C171.238 32.5398 171.471 32.5795 171.727 32.5795C171.92 32.5795 172.096 32.5653 172.255 32.5369C172.42 32.5085 172.545 32.483 172.63 32.4602L173.15 34.8722C172.985 34.929 172.749 34.9915 172.442 35.0597C172.141 35.1278 171.772 35.1676 171.335 35.179C170.562 35.2017 169.866 35.0852 169.246 34.8295C168.627 34.5682 168.136 34.1648 167.772 33.6193C167.414 33.0739 167.238 32.392 167.244 31.5739V18.7727ZM181.146 35.2557C179.834 35.2557 178.7 34.983 177.746 34.4375C176.797 33.8864 176.067 33.108 175.555 32.1023C175.044 31.0909 174.788 29.9006 174.788 28.5312C174.788 27.1847 175.044 26.0028 175.555 24.9858C176.072 23.9631 176.794 23.1676 177.72 22.5994C178.646 22.0256 179.734 21.7386 180.984 21.7386C181.791 21.7386 182.553 21.8693 183.268 22.1307C183.99 22.3864 184.626 22.7841 185.178 23.3239C185.734 23.8636 186.172 24.5511 186.49 25.3864C186.808 26.2159 186.967 27.2045 186.967 28.3523V29.2983H176.237V27.2188H184.01C184.004 26.6278 183.876 26.1023 183.626 25.642C183.376 25.1761 183.027 24.8097 182.578 24.5426C182.135 24.2756 181.618 24.142 181.027 24.142C180.396 24.142 179.842 24.2955 179.365 24.6023C178.888 24.9034 178.516 25.3011 178.249 25.7955C177.987 26.2841 177.854 26.821 177.848 27.4062V29.2216C177.848 29.983 177.987 30.6364 178.266 31.1818C178.544 31.7216 178.933 32.1364 179.433 32.4261C179.933 32.7102 180.518 32.8523 181.189 32.8523C181.638 32.8523 182.044 32.7898 182.408 32.6648C182.771 32.5341 183.087 32.3438 183.354 32.0938C183.621 31.8438 183.822 31.5341 183.959 31.1648L186.839 31.4886C186.658 32.25 186.311 32.9148 185.8 33.483C185.294 34.0455 184.646 34.483 183.857 34.7955C183.067 35.1023 182.163 35.2557 181.146 35.2557Z" fill="white"/>
</svg>
